<?xml version="1.0" standalone="no"?>
<!DOCTYPE svg PUBLIC "-//W3C//DTD SVG 20010904//EN"
 "http://www.w3.org/TR/2001/REC-SVG-20010904/DTD/svg10.dtd">
<svg version="1.0" xmlns="http://www.w3.org/2000/svg"
 width="100.000000pt" height="100.000000pt" viewBox="0 0 100.000000 100.000000"
 preserveAspectRatio="xMidYMid meet">
<metadata>
Created by potrace 1.14, written by Peter Selinger 2001-2017
</metadata>
<g transform="translate(0.000000,100.000000) scale(0.100000,-0.100000)"
fill="#000000" stroke="none">
<path d="M257 994 c-4 -4 -7 -87 -7 -184 l0 -177 -107 1 c-111 2 -143 -5 -143
-28 0 -8 27 -47 60 -86 74 -89 75 -90 90 -167 l12 -62 57 -22 c31 -13 65 -29
77 -36 27 -17 46 -10 67 26 29 50 58 33 129 -80 l63 -99 85 -36 c47 -20 99
-37 115 -37 l30 -2 -3 91 -2 90 62 55 c34 30 83 74 110 98 l48 43 0 103 c0 82
-3 104 -15 109 -11 4 -15 22 -15 70 0 75 7 70 -120 86 -47 6 -96 13 -110 15
-14 2 -43 6 -65 9 -99 15 -95 11 -96 79 0 34 -1 80 -2 102 l-2 40 -156 3 c-85
1 -158 -1 -162 -4z m268 -141 c0 -51 5 -97 10 -102 6 -6 28 -13 50 -16 22 -4
51 -8 64 -10 13 -2 45 -7 70 -11 25 -3 57 -8 71 -10 14 -2 45 -7 70 -10 24 -3
47 -7 50 -9 3 -2 7 -27 8 -56 1 -36 6 -56 17 -61 11 -7 15 -27 14 -86 l0 -77
-62 -52 c-34 -29 -84 -72 -111 -96 l-49 -43 2 -72 c1 -40 -1 -72 -4 -72 -2 0
-34 12 -69 27 -63 26 -66 28 -127 125 -33 54 -65 101 -70 104 -5 3 -31 7 -57
10 -41 4 -50 1 -67 -21 l-21 -25 -48 19 c-56 21 -63 29 -71 94 -6 38 -18 61
-56 107 -27 33 -49 62 -49 65 0 3 47 5 105 5 93 0 105 2 106 18 1 9 3 87 4
172 1 85 3 161 4 168 1 10 27 12 108 10 l107 -3 1 -92z"/>
</g>
</svg>
